<svg width="46" height="74" viewBox="0 0 46 74" fill="none" xmlns="http://www.w3.org/2000/svg">
<path d="M25.3479 29.6799H20.6523V41.3992H25.3479V29.6799Z" fill="#FFA91A"/>
<path d="M23.5511 29.6799V39.6023H20.6523V41.3992H25.3479V29.6799H23.5511Z" fill="#EF7816"/>
<path d="M41.8561 52.1074H4.14404V70.9203H41.8561V52.1074Z" fill="#58595B"/>
<path d="M38.2624 52.1074V67.3266H4.14404V70.9203H41.8561V52.1074H38.2624Z" fill="#414042"/>
<path d="M44.2756 73.9172H1.72382C0.896179 73.9172 0.225586 73.2463 0.225586 72.419C0.225586 71.5914 0.896539 70.9208 1.72382 70.9208H44.2756C45.1033 70.9208 45.7739 71.5917 45.7739 72.419C45.7742 73.2467 45.1033 73.9172 44.2756 73.9172Z" fill="#939598"/>
<path d="M44.276 70.9204H43.9479C43.8095 71.605 43.2047 72.1204 42.4791 72.1204H0.255414C0.236008 72.2167 0.225586 72.3166 0.225586 72.419C0.225586 73.2467 0.896539 73.9172 1.72382 73.9172H44.2756C45.1033 73.9172 45.7739 73.2463 45.7739 72.419C45.7739 71.5917 45.1033 70.9204 44.276 70.9204Z" fill="#808285"/>
<path d="M44.2756 52.1074H1.72382C0.896179 52.1074 0.225586 51.4365 0.225586 50.6092C0.225586 49.7816 0.896539 49.111 1.72382 49.111H44.2756C45.1033 49.111 45.7739 49.7819 45.7739 50.6092C45.7742 51.4365 45.1033 52.1074 44.2756 52.1074Z" fill="#939598"/>
<path d="M44.276 49.1106H43.9479C43.8095 49.7952 43.2047 50.3105 42.4791 50.3105H0.255414C0.236008 50.4069 0.225586 50.5068 0.225586 50.6092C0.225586 51.4368 0.896539 52.1074 1.72382 52.1074H44.2756C45.1033 52.1074 45.7739 51.4365 45.7739 50.6092C45.7739 49.7819 45.1033 49.1106 44.276 49.1106Z" fill="#808285"/>
<path d="M22.9999 31.41C15.7151 31.41 9.80908 25.5044 9.80908 18.2191V1.40718C9.80908 0.675854 10.4021 0.0828857 11.1334 0.0828857H34.8661C35.5975 0.0828857 36.1904 0.675854 36.1904 1.40718V18.2195C36.1908 25.5044 30.2848 31.41 22.9999 31.41Z" fill="#FFA91A"/>
<path d="M13.4008 24.3788C13.1416 24.3788 12.9048 24.2386 12.7754 24.0158C12.5814 23.6708 12.7036 23.2288 13.045 23.0347C13.3792 22.8442 13.8356 22.9736 14.0261 23.3042C14.1195 23.4695 14.1443 23.6636 14.094 23.8505C14.0437 24.0338 13.9218 24.1883 13.7565 24.2853C13.6484 24.3464 13.5265 24.3788 13.4008 24.3788ZM12.319 21.723C11.992 21.723 11.7081 21.5002 11.6251 21.1839C11.3735 20.2208 11.2441 19.2217 11.2441 18.2191V2.23767C11.2441 2.0508 11.3232 1.86392 11.4562 1.73095C11.5891 1.59798 11.776 1.51892 11.9665 1.51892H25.9246C26.3203 1.51892 26.6434 1.84236 26.6434 2.23767C26.6434 2.63658 26.3203 2.95642 25.9246 2.95642H12.682V18.2191C12.682 19.0995 12.7934 19.9764 13.0162 20.821C13.1168 21.2055 12.8868 21.6008 12.5023 21.6978C12.4448 21.7158 12.3801 21.723 12.319 21.723Z" fill="#FFC91D"/>
<path d="M34.8665 0.0828857H32.5971V14.6254C32.5971 21.9102 26.6915 27.8162 19.4062 27.8162C16.6821 27.8162 14.1514 26.9904 12.0498 25.5759C14.4188 29.0949 18.4391 31.41 23 31.41C30.2849 31.41 36.1908 25.5044 36.1908 18.2191V1.40718C36.1908 0.675854 35.5979 0.0828857 34.8665 0.0828857Z" fill="#F79219"/>
<path d="M34.8665 0.0828857H34.3939V16.4222C34.3939 23.7071 28.4883 29.6131 21.203 29.6131C18.0183 29.6131 15.0969 28.4843 12.8174 26.6048C15.2367 29.5391 18.8998 31.41 22.9999 31.41C30.2848 31.41 36.1908 25.5044 36.1908 18.2191V1.40718C36.1908 0.675854 35.5978 0.0828857 34.8665 0.0828857Z" fill="#EF7816"/>
<path d="M43.0718 4.17834H36.1883V7.6783H42.2722V16.9786C42.2722 18.7323 40.8455 20.1587 39.0921 20.1587H36.0467C35.8656 21.3888 35.5145 22.5636 35.0186 23.6586H39.0921C42.7753 23.6586 45.7721 20.6618 45.7721 16.9786V6.87833C45.7718 5.38944 44.5607 4.17834 43.0718 4.17834Z" fill="#F79219"/>
<path d="M42.3805 5.96191H36.1885V7.67829H42.2723V16.9786C42.2723 18.7348 40.8485 20.1587 39.0922 20.1587H36.0469C35.9606 20.7441 35.8359 21.3173 35.6753 21.875H39.7632C42.0028 21.875 43.818 20.0595 43.818 17.8202V7.39941C43.818 6.6052 43.1744 5.96191 42.3805 5.96191Z" fill="#EF7816"/>
<path d="M2.92801 4.17834H9.81148V7.6783H3.72762V16.9786C3.72762 18.7323 5.15434 20.1587 6.90773 20.1587H9.95307C10.1342 21.3888 10.4853 22.5636 10.9812 23.6586H6.90809C3.22485 23.6586 0.228027 20.6618 0.228027 16.9786V6.87833C0.228027 5.38944 1.43912 4.17834 2.92801 4.17834Z" fill="#F79219"/>
<path d="M3.61963 5.96191H9.81166V7.67829H3.7278V16.9786C3.7278 18.7348 5.15164 20.1587 6.90791 20.1587H9.95325C10.0395 20.7441 10.1642 21.3173 10.3248 21.875H6.23696C3.99733 21.875 2.18213 20.0595 2.18213 17.8202V7.39941C2.18213 6.6052 2.82577 5.96191 3.61963 5.96191Z" fill="#EF7816"/>
<path d="M31.7983 45.2549H14.2008C13.4694 45.2549 12.8765 45.8479 12.8765 46.5792V49.1106H33.1226V46.5792C33.1226 45.8479 32.53 45.2549 31.7983 45.2549Z" fill="#FFA91A"/>
<path d="M31.7984 45.2549H31.3258V47.3137H12.877V49.1106H33.1231V46.5792C33.1227 45.8479 32.5301 45.2549 31.7984 45.2549Z" fill="#EF7816"/>
<path d="M27.7633 41.3992H18.2359C17.5046 41.3992 16.9116 41.9921 16.9116 42.7235V45.2549H29.0876V42.7235C29.0876 41.9921 28.495 41.3992 27.7633 41.3992Z" fill="#FFA91A"/>
<path d="M27.7634 41.3992H27.2909V43.458H16.9121V45.2549H29.0881V42.7235C29.0877 41.9921 28.4951 41.3992 27.7634 41.3992Z" fill="#EF7816"/>
<path d="M32.5306 64.3434H13.4683C12.6759 64.3434 12.0337 63.7012 12.0337 62.9088V56.7944C12.0337 56.0019 12.6759 55.3597 13.4683 55.3597H32.5306C33.3227 55.3597 33.9653 56.0019 33.9653 56.7944V62.9088C33.9653 63.7012 33.3231 64.3434 32.5306 64.3434Z" fill="#FFA91A"/>
<path d="M32.5308 55.3597H32.1685V61.1119C32.1685 61.9043 31.5263 62.5465 30.7339 62.5465H12.0342V62.9088C12.0342 63.7012 12.6764 64.3434 13.4688 64.3434H32.5311C33.3236 64.3434 33.9658 63.7012 33.9658 62.9088V56.7944C33.9654 56.0019 33.3232 55.3597 32.5308 55.3597Z" fill="#EF7816"/>
<path d="M23.748 4.92184L25.1859 9.34683C25.2912 9.67098 25.5934 9.89056 25.9341 9.89056H30.3055C31.1562 9.89056 31.5102 10.9791 30.8216 11.4794L27.285 14.0489C27.0093 14.2494 26.8936 14.6045 26.9993 14.9286L28.4371 19.3536C28.6725 20.0785 27.8431 20.6815 27.2264 20.2334L23.5159 17.5377C23.2079 17.3142 22.7914 17.3142 22.4834 17.5377L18.7728 20.2334C18.1561 20.6815 17.3264 20.0785 17.5621 19.3536L19 14.9286C19.1053 14.6045 18.9899 14.2491 18.7143 14.0489L15.1776 11.4794C14.4894 10.9791 14.8431 9.89056 15.6937 9.89056H20.0651C20.4062 9.89056 20.7081 9.67098 20.8134 9.34683L22.2512 4.92184C22.487 4.19663 23.5126 4.19663 23.748 4.92184Z" fill="white"/>
</svg>
