<svg width="31" height="30" viewBox="0 0 31 30" fill="none" xmlns="http://www.w3.org/2000/svg">
<path d="M21.6872 3.42831C22.6635 2.452 24.2464 2.452 25.2227 3.42831L26.9905 5.19608C27.9668 6.17239 27.9668 7.7553 26.9905 8.73161L19.0355 16.6866C18.0592 17.6629 16.4763 17.6629 15.5 16.6866L14.6161 15.8027L12.8483 17.5704L13.7322 18.4543C15.6849 20.4069 18.8507 20.4069 20.8033 18.4543L28.7582 10.4994C30.7109 8.54675 30.7109 5.38093 28.7582 3.42831L26.9905 1.66054C25.0379 -0.29208 21.872 -0.29208 19.9194 1.66054L15.5 6.07996L17.2678 7.84773L21.6872 3.42831Z" fill="#F2F6FB"/>
<path d="M9.31281 26.4093C8.3365 27.3856 6.75359 27.3856 5.77728 26.4093L4.00951 24.6415C3.0332 23.6652 3.0332 22.0823 4.00951 21.106L11.9645 13.151C12.9408 12.1747 14.5237 12.1747 15.5 13.151L16.3839 14.0349L18.1516 12.2671L17.2678 11.3833C15.3151 9.43064 12.1493 9.43064 10.1967 11.3833L2.24175 19.3382C0.289125 21.2908 0.289125 24.4567 2.24175 26.4093L4.00951 28.177C5.96214 30.1297 9.12796 30.1297 11.0806 28.177L15.5 23.7576L13.7322 21.9899L9.31281 26.4093Z" fill="#F2F6FB"/>
</svg>
