<svg width="16" height="17" viewBox="0 0 16 17" fill="none" xmlns="http://www.w3.org/2000/svg">
<g opacity="0.8">
<path d="M13.9058 3.5255L13.4586 10.7593C13.3443 12.6074 13.2873 13.5315 12.824 14.196C12.5949 14.5244 12.3001 14.8016 11.9581 15.01C11.2664 15.4314 10.3405 15.4314 8.48876 15.4314C6.63464 15.4314 5.70755 15.4314 5.01539 15.0092C4.67319 14.8005 4.37821 14.5228 4.14924 14.1937C3.68614 13.5283 3.63027 12.6029 3.51854 10.7521L3.08228 3.5255" stroke="#E04242" stroke-linecap="round"/>
<path d="M14.9882 3.5255H2" stroke="#E04242" stroke-linecap="round"/>
<path d="M11.4205 3.52549L10.928 2.50932C10.6008 1.83432 10.4371 1.49681 10.1549 1.28633C10.0923 1.23963 10.026 1.1981 9.95669 1.16214C9.64418 1 9.26911 1 8.51897 1C7.74999 1 7.36554 1 7.04783 1.16893C6.97742 1.20638 6.91023 1.24959 6.84696 1.29813C6.56146 1.51715 6.40199 1.867 6.08304 2.56671L5.646 3.52549" stroke="#E04242" stroke-linecap="round"/>
<path d="M6.69019 11.4628V7.13335" stroke="#E04242" stroke-linecap="round"/>
<path d="M10.2981 11.4628V7.13335" stroke="#E04242" stroke-linecap="round"/>
</g>
</svg>
