<svg width="18" height="19" viewBox="0 0 18 19" fill="none" xmlns="http://www.w3.org/2000/svg">
<path d="M10.659 3.00836C11.2551 2.36246 11.5532 2.03952 11.8699 1.85114C12.6342 1.39661 13.5753 1.38247 14.3523 1.81386C14.6743 1.99264 14.9815 2.3065 15.596 2.93421C16.2105 3.56192 16.5178 3.87577 16.6927 4.20474C17.115 4.99849 17.1012 5.95983 16.6562 6.74056C16.4718 7.06413 16.1557 7.36862 15.5234 7.9776L8.00048 15.2234C6.8023 16.3775 6.2032 16.9546 5.45445 17.247C4.7057 17.5394 3.88256 17.5179 2.23629 17.4749L2.0123 17.469C1.51113 17.4559 1.26054 17.4494 1.11487 17.284C0.969201 17.1187 0.989089 16.8634 1.02886 16.353L1.05047 16.0758C1.16241 14.6388 1.21838 13.9204 1.49897 13.2746C1.77955 12.6287 2.26355 12.1044 3.23154 11.0556L10.659 3.00836Z" stroke="#F4F4F4" stroke-width="1.2" stroke-linejoin="round"/>
<path d="M9.80005 3.10001L15.4 8.70001" stroke="#F4F4F4" stroke-width="1.2" stroke-linejoin="round"/>
</svg>
