<svg width="40.000000" height="40.000000" viewBox="0 0 40 40" fill="none" xmlns="http://www.w3.org/2000/svg" xmlns:xlink="http://www.w3.org/1999/xlink">
	<desc>
			Created with Pixso.
	</desc>
	<defs>
		<clipPath id="clip779_6085">
			<rect id="iconCollaborator" width="40.000000" height="40.000000" fill="white" fill-opacity="0"/>
		</clipPath>
	</defs>
	<g clip-path="url(#clip779_6085)">
		<path id="Vector" d="M6.7 34.99C8.5 36.66 10.5 37.85 13.01 37.85L27.35 37.85C29.86 37.85 31.86 36.66 33.66 34.99C37.33 31.59 31.3 28.87 29 27.54C23.6 24.41 16.76 24.41 11.36 27.54C9.06 28.87 3.03 31.59 6.7 34.99Z" stroke="#F4F4F4" stroke-opacity="1.000000" stroke-width="2.000000" stroke-linejoin="round"/>
		<path id="Vector" d="M20.18 18.87C15.56 18.87 11.82 15.09 11.82 10.43C11.82 5.77 15.56 2 20.18 2C24.8 2 28.54 5.77 28.54 10.43C28.54 15.09 24.8 18.87 20.18 18.87Z" stroke="#F4F4F4" stroke-opacity="1.000000" stroke-width="2.000000"/>
	</g>
</svg>
