<svg width="25" height="24" viewBox="0 0 25 24" fill="none" xmlns="http://www.w3.org/2000/svg">
<path d="M12.0266 14.5701C13.4491 14.5701 14.6022 13.4194 14.6022 12.0001C14.6022 10.5807 13.4491 9.43005 12.0266 9.43005C10.6041 9.43005 9.45093 10.5807 9.45093 12.0001C9.45093 13.4194 10.6041 14.5701 12.0266 14.5701Z" stroke="#F4F4F4" stroke-width="1.5" stroke-linecap="round" stroke-linejoin="round"/>
<path fill-rule="evenodd" clip-rule="evenodd" d="M20.5652 8.27L19.5329 6.49C19.102 5.75 18.1599 5.5 17.4183 5.93L16.9072 6.22C15.8749 6.81 14.5921 6.07 14.5921 4.88V4.29C14.5921 3.44 13.9006 2.75 13.0487 2.75H10.9842C10.1323 2.75 9.4408 3.44 9.4408 4.29V4.88C9.4408 6.07 8.15796 6.81 7.12569 6.22L6.61459 5.93C5.87296 5.5 4.93088 5.76 4.49994 6.49L3.46768 8.27C3.03673 9.01 3.2973 9.95 4.0289 10.38L4.54003 10.67C5.5723 11.26 5.5723 12.75 4.54003 13.34L4.0289 13.63C3.28728 14.06 3.03673 15 3.46768 15.74L4.49994 17.52C4.93088 18.26 5.87296 18.51 6.61459 18.08L7.12569 17.79C8.15796 17.2 9.4408 17.94 9.4408 19.13V19.72C9.4408 20.57 10.1323 21.26 10.9842 21.26H13.0487C13.9006 21.26 14.5921 20.57 14.5921 19.72V19.13C14.5921 17.94 15.8749 17.2 16.9072 17.79L17.4183 18.08C18.1599 18.51 19.102 18.25 19.5329 17.52L20.5652 15.74C20.9961 15 20.7355 14.06 20.0039 13.63L19.4928 13.34C18.4606 12.75 18.4606 11.26 19.4928 10.67L20.0039 10.38C20.7456 9.95 20.9961 9 20.5652 8.27Z" stroke="#F4F4F4" stroke-width="1.5" stroke-linecap="round" stroke-linejoin="round"/>
</svg>
