<svg width="68" height="56" viewBox="0 0 68 56" fill="none" xmlns="http://www.w3.org/2000/svg">
<path d="M44.333 16V9.48571C44.333 8.03081 43.1741 6.6355 41.1112 5.60673C39.0483 4.57796 36.2504 4 33.333 4C30.4156 4 27.6177 4.57796 25.5548 5.60673C23.4919 6.6355 22.333 8.03081 22.333 9.48571V16" stroke="#F4F4F4" stroke-width="3.6" stroke-linecap="round" stroke-linejoin="round"/>
<path d="M52.05 16H14.95C10.5593 16 7 18.8443 7 22.3529V45.6471C7 49.1557 10.5593 52 14.95 52H52.05C56.4407 52 60 49.1557 60 45.6471V22.3529C60 18.8443 56.4407 16 52.05 16Z" stroke="#F4F4F4" stroke-width="3.6" stroke-linecap="round" stroke-linejoin="round"/>
<path d="M36.5 33H29.5C28.6716 33 28 33.395 28 33.8824V37.1176C28 37.605 28.6716 38 29.5 38H36.5C37.3284 38 38 37.605 38 37.1176V33.8824C38 33.395 37.3284 33 36.5 33Z" stroke="#F4F4F4" stroke-width="2" stroke-linecap="round" stroke-linejoin="round"/>
</svg>
