<svg width="21.000000" height="20.000000" viewBox="0 0 21 20" fill="none" xmlns="http://www.w3.org/2000/svg" xmlns:xlink="http://www.w3.org/1999/xlink">
	<desc>
			Created with Pixso.
	</desc>
	<defs/>
	<path id="Vector" d="M18.17 14.64C18.85 14.64 19.39 14.22 19.87 13.62C20.86 12.4 19.23 11.43 18.62 10.95C17.99 10.47 17.28 10.19 16.57 10.13M15.66 8.32C16.91 8.32 17.92 7.31 17.92 6.06C17.92 4.81 16.91 3.8 15.66 3.8" stroke="#F4F4F4" stroke-opacity="1.000000" stroke-width="1.100000"/>
	<path id="Vector" d="M2.32 14.64C1.64 14.64 1.1 14.22 0.62 13.62C-0.37 12.4 1.25 11.43 1.87 10.95C2.5 10.47 3.21 10.19 3.92 10.13M4.37 8.32C3.13 8.32 2.11 7.31 2.11 6.06C2.11 4.81 3.13 3.8 4.37 3.8" stroke="#F4F4F4" stroke-opacity="1.000000" stroke-width="1.100000"/>
	<path id="Vector" d="M4.84 15.23C5.56 15.94 6.36 16.45 7.37 16.45L13.12 16.45C14.13 16.45 14.93 15.94 15.65 15.23C17.13 13.77 14.71 12.6 13.78 12.03C11.62 10.69 8.87 10.69 6.71 12.03C5.78 12.6 3.36 13.77 4.84 15.23Z" stroke="#F4F4F4" stroke-opacity="1.000000" stroke-width="1.100000" stroke-linejoin="round"/>
	<path id="Vector" d="M10.25 8.32C8.5 8.32 7.08 6.9 7.08 5.16C7.08 3.41 8.5 2 10.25 2C11.99 2 13.41 3.41 13.41 5.16C13.41 6.9 11.99 8.32 10.25 8.32Z" stroke="#F4F4F4" stroke-opacity="1.000000" stroke-width="1.100000"/>
</svg>
