<svg width="12.000000" height="17.000000" viewBox="0 0 12 17" fill="none" xmlns="http://www.w3.org/2000/svg" xmlns:xlink="http://www.w3.org/1999/xlink">
	<desc>
			Created with Pixso.
	</desc>
	<defs/>
	<path id="Vector" d="M3.61 6.94L3.77 6.78C5.35 5.19 7.92 5.19 9.5 6.78C11.08 8.36 11.08 10.92 9.5 12.5L7.21 14.79C5.63 16.37 3.06 16.37 1.48 14.79C-0.1 13.21 -0.1 10.65 1.48 9.07L1.85 8.69" stroke="#F4F4F4" stroke-opacity="1.000000" stroke-width="1.000000" stroke-linecap="round"/>
	<path id="Vector" d="M9.93 7.28L10.3 6.91C11.88 5.33 11.88 2.76 10.3 1.18C8.72 -0.4 6.15 -0.4 4.57 1.18L2.28 3.47C0.7 5.05 0.7 7.62 2.28 9.2C3.86 10.78 6.42 10.78 8.01 9.2L8.17 9.03" stroke="#F4F4F4" stroke-opacity="1.000000" stroke-width="1.000000" stroke-linecap="round"/>
</svg>
