<svg width="16" height="18" viewBox="0 0 16 18" fill="none" xmlns="http://www.w3.org/2000/svg">
<g opacity="0.8">
<path d="M5.61127 7.94547L5.77664 7.78012C7.35792 6.19876 9.92179 6.19876 11.5031 7.78012C13.0845 9.36142 13.0845 11.9253 11.5031 13.5066L9.21253 15.7971C7.63124 17.3785 5.06737 17.3785 3.48604 15.7971C1.90472 14.2158 1.90472 11.652 3.48604 10.0707L3.85713 9.69962" stroke="#F4F4F4" stroke-linecap="round"/>
<path d="M11.9311 8.28353L12.3022 7.91248C13.8835 6.33115 13.8835 3.76732 12.3022 2.18599C10.7209 0.60467 8.157 0.60467 6.5757 2.18599L4.28511 4.47659C2.70379 6.05791 2.70379 8.62174 4.28511 10.203C5.86644 11.7844 8.43031 11.7844 10.0116 10.203L10.177 10.0377" stroke="#F4F4F4" stroke-linecap="round"/>
</g>
</svg>