<svg width="109" height="50" viewBox="0 0 109 50" fill="none" xmlns="http://www.w3.org/2000/svg">
<g clip-path="url(#clip0_787_8925)">
<path d="M6.24162 33L12.4096 15.84H16.7776L22.9696 33H18.5056L17.4976 29.904H11.4976L10.5136 33H6.24162ZM12.4816 26.856H16.5136L15.2176 22.704L14.5456 20.28H14.4976C14.2256 21.304 13.9936 22.112 13.8016 22.704L12.4816 26.856ZM29.3026 33.384C27.3506 33.384 25.7746 32.768 24.5746 31.536C23.3746 30.304 22.7746 28.752 22.7746 26.88C22.7746 25.008 23.3666 23.456 24.5506 22.224C25.7346 20.992 27.2866 20.376 29.2066 20.376C30.8386 20.376 32.1746 20.808 33.2146 21.672C34.2546 22.536 34.8626 23.672 35.0386 25.08H31.2706C30.9986 23.864 30.3266 23.256 29.2546 23.256C28.4226 23.256 27.7906 23.576 27.3586 24.216C26.9426 24.856 26.7346 25.744 26.7346 26.88C26.7346 28 26.9506 28.88 27.3826 29.52C27.8146 30.144 28.4386 30.456 29.2546 30.456C30.5026 30.456 31.2146 29.752 31.3906 28.344H35.1346C35.0866 29.8 34.5266 31.008 33.4546 31.968C32.3986 32.912 31.0146 33.384 29.3026 33.384ZM36.3813 33V15.84H40.2933V22.224H40.3653C41.3093 20.976 42.5253 20.352 44.0133 20.352C45.3413 20.352 46.3813 20.784 47.1333 21.648C47.9013 22.496 48.2853 23.616 48.2853 25.008V33H44.3733V25.8C44.3733 25.128 44.2053 24.6 43.8693 24.216C43.5493 23.816 43.0773 23.616 42.4533 23.616C41.8133 23.616 41.2933 23.856 40.8933 24.336C40.4933 24.816 40.2933 25.44 40.2933 26.208V33H36.3813ZM50.0688 33V20.712H53.9808V33H50.0688ZM50.0688 19.008V15.84H53.9808V19.008H50.0688ZM61.8579 33.36C59.8739 33.36 58.2819 32.752 57.0819 31.536C55.8979 30.304 55.3059 28.736 55.3059 26.832C55.3059 24.976 55.8899 23.432 57.0579 22.2C58.2419 20.968 59.7619 20.352 61.6179 20.352C63.2979 20.352 64.6979 20.864 65.8179 21.888C67.2899 23.232 68.0099 25.224 67.9779 27.864H59.1459C59.2739 28.712 59.5699 29.376 60.0339 29.856C60.4979 30.32 61.1219 30.552 61.9059 30.552C62.9139 30.552 63.5939 30.144 63.9459 29.328H67.7619C67.4739 30.512 66.7859 31.48 65.6979 32.232C64.6259 32.984 63.3459 33.36 61.8579 33.36ZM59.1699 25.536H64.0179C63.9539 24.8 63.7059 24.216 63.2739 23.784C62.8579 23.352 62.3299 23.136 61.6899 23.136C60.2979 23.136 59.4579 23.936 59.1699 25.536ZM72.176 33L67.928 20.712H71.96L73.64 26.256L74.312 28.728H74.36C74.568 27.896 74.792 27.072 75.032 26.256L76.736 20.712H80.648L76.4 33H72.176ZM87.0532 33.36C85.0692 33.36 83.4772 32.752 82.2772 31.536C81.0932 30.304 80.5012 28.736 80.5012 26.832C80.5012 24.976 81.0852 23.432 82.2532 22.2C83.4372 20.968 84.9572 20.352 86.8132 20.352C88.4932 20.352 89.8932 20.864 91.0132 21.888C92.4852 23.232 93.2052 25.224 93.1732 27.864H84.3412C84.4692 28.712 84.7652 29.376 85.2292 29.856C85.6932 30.32 86.3172 30.552 87.1012 30.552C88.1092 30.552 88.7892 30.144 89.1412 29.328H92.9572C92.6692 30.512 91.9812 31.48 90.8932 32.232C89.8212 32.984 88.5412 33.36 87.0532 33.36ZM84.3652 25.536H89.2132C89.1492 24.8 88.9012 24.216 88.4692 23.784C88.0532 23.352 87.5252 23.136 86.8852 23.136C85.4932 23.136 84.6532 23.936 84.3652 25.536ZM94.4829 33V20.712H98.2269V22.632H98.2989C99.1309 21.224 100.251 20.52 101.659 20.52C102.027 20.52 102.283 20.552 102.427 20.616V23.976H102.331C101.115 23.8 100.155 24.016 99.4509 24.624C98.7469 25.216 98.3949 26.168 98.3949 27.48V33H94.4829Z" fill="#F4F4F4"/>
</g>
<defs>
<clipPath id="clip0_787_8925">
<rect width="109" height="50" fill="white"/>
</clipPath>
</defs>
</svg>
