<svg width="20" height="20" viewBox="0 0 20 20" fill="none" xmlns="http://www.w3.org/2000/svg">
<g opacity="0.6">
<path d="M18.1543 5.36355L17.7347 4.63544C17.4174 4.08478 17.2588 3.80946 16.9888 3.69966C16.7189 3.58987 16.4135 3.67651 15.803 3.84977L14.7658 4.14192C14.376 4.23181 13.967 4.18081 13.6111 3.99793L13.3247 3.83272C13.0195 3.63723 12.7847 3.34899 12.6548 3.01019L12.3709 2.16242C12.1843 1.6014 12.091 1.32089 11.8688 1.16045C11.6467 1 11.3515 1 10.7613 1H9.81371C9.22356 1 8.92844 1 8.70625 1.16045C8.4841 1.32089 8.39078 1.6014 8.20414 2.16242L7.92028 3.01019C7.79033 3.34899 7.55556 3.63723 7.25034 3.83272L6.96399 3.99793C6.60806 4.18081 6.19908 4.23181 5.80926 4.14192L4.77206 3.84977C4.16147 3.67651 3.85619 3.58987 3.58624 3.69966C3.3163 3.80946 3.15766 4.08478 2.84035 4.63544L2.42081 5.36355C2.12338 5.87971 1.97467 6.13779 2.00353 6.41253C2.03239 6.68727 2.23148 6.90867 2.62965 7.35147L3.50603 8.33125C3.72023 8.6024 3.8723 9.075 3.8723 9.49991C3.8723 9.925 3.72028 10.3974 3.50606 10.6687L2.62965 11.6485C2.23148 12.0913 2.0324 12.3126 2.00353 12.5875C1.97467 12.8622 2.12338 13.1202 2.42081 13.6364L2.84034 14.3645C3.15764 14.9151 3.3163 15.1905 3.58624 15.3002C3.85619 15.41 4.16148 15.3234 4.77208 15.1501L5.80923 14.858C6.19911 14.768 6.60817 14.8191 6.96415 15.002L7.25045 15.1673C7.55561 15.3628 7.79032 15.6509 7.92025 15.9897L8.20414 16.8376C8.39078 17.3986 8.4841 17.6791 8.70625 17.8396C8.92844 18 9.22356 18 9.81371 18H10.7613C11.3515 18 11.6467 18 11.8688 17.8396C12.091 17.6791 12.1843 17.3986 12.3709 16.8376L12.6548 15.9897C12.7847 15.6509 13.0194 15.3628 13.3246 15.1673L13.6109 15.002C13.9669 14.8191 14.3759 14.768 14.7658 14.858L15.803 15.1501C16.4135 15.3234 16.7189 15.41 16.9888 15.3002C17.2588 15.1905 17.4174 14.9151 17.7347 14.3645L18.1543 13.6364C18.4517 13.1202 18.6003 12.8622 18.5715 12.5875C18.5426 12.3126 18.3436 12.0913 17.9454 11.6485L17.069 10.6687C16.8548 10.3974 16.7027 9.925 16.7027 9.49991C16.7027 9.075 16.8549 8.6024 17.069 8.33125L17.9454 7.35147C18.3436 6.90867 18.5426 6.68727 18.5715 6.41253C18.6003 6.13779 18.4517 5.87971 18.1543 5.36355Z" stroke="#F4F4F4"  stroke-linecap="round"/>
<path d="M13.2261 9.4934C13.2261 11.1365 11.8942 12.4684 10.2511 12.4684C8.60805 12.4684 7.27612 11.1365 7.27612 9.4934C7.27612 7.85035 8.60805 6.5184 10.2511 6.5184C11.8942 6.5184 13.2261 7.85035 13.2261 9.4934Z" stroke="#F4F4F4"/>
</g>
</svg>
