<svg width="22" height="22" viewBox="0 0 22 22" fill="none" xmlns="http://www.w3.org/2000/svg">
<path fill-rule="evenodd" clip-rule="evenodd" d="M19.74 5.86011L21 14.2001C21.51 17.8501 19 21.1701 15.6 21.2001H6.34001C3.00001 21.2001 0.460006 17.8501 1.00001 14.2001L2.26001 5.86011C2.55913 3.10248 4.82868 0.97743 7.60001 0.860107H14.4C17.1713 0.97743 19.4409 3.10248 19.74 5.86011ZM15.63 19.6701C16.7037 19.6546 17.7165 19.1683 18.4 18.3401C19.3167 17.2544 19.7147 15.8231 19.49 14.4201L18.26 6.08011C18.0844 4.04439 16.4399 2.44683 14.4 2.33011H7.60001C5.56007 2.44683 3.91564 4.04439 3.74001 6.08011L2.51001 14.4201C2.28532 15.8231 2.6833 17.2544 3.60001 18.3401C4.28352 19.1683 5.29627 19.6546 6.37001 19.6701H15.63Z" fill="#F4F4F4"/>
<path d="M14.15 6.06011C13.7358 6.06011 13.4 6.39589 13.4 6.81011C13.4 8.13559 12.3255 9.21011 11 9.21011C9.67452 9.21011 8.60001 8.13559 8.60001 6.81011C8.60001 6.39589 8.26422 6.06011 7.85001 6.06011C7.43579 6.06011 7.10001 6.39589 7.10001 6.81011C7.10001 8.20344 7.84334 9.49094 9.05001 10.1876C10.2567 10.8843 11.7433 10.8843 12.95 10.1876C14.1567 9.49094 14.9 8.20344 14.9 6.81011C14.8946 6.39815 14.562 6.06549 14.15 6.06011Z" fill="#F4F4F4"/>
</svg>
