<svg width="22" height="16" viewBox="0 0 22 16" fill="none" xmlns="http://www.w3.org/2000/svg">
<path d="M19.176 13.6477C19.8529 13.6477 20.3913 13.2218 20.8748 12.6261C21.8644 11.4067 20.2396 10.4323 19.6199 9.95513C18.9899 9.47 18.2865 9.19519 17.5733 9.13068M16.6699 7.32387C17.9173 7.32387 18.9284 6.31269 18.9284 5.06535C18.9284 3.818 17.9173 2.80682 16.6699 2.80682" stroke="#F4F4F4" stroke-width="1.1" stroke-linecap="round"/>
<path d="M3.32345 13.6477C2.64653 13.6477 2.1081 13.2218 1.62467 12.6261C0.635022 11.4067 2.25988 10.4323 2.8796 9.95513C3.50956 9.47 4.21296 9.19519 4.92613 9.13068M5.37784 7.32387C4.13049 7.32387 3.11932 6.31269 3.11932 5.06535C3.11932 3.818 4.13049 2.80682 5.37784 2.80682" stroke="#F4F4F4" stroke-width="1.1" stroke-linecap="round"/>
<path d="M7.71216 11.038C6.78908 11.6088 4.36881 12.7742 5.84291 14.2326C6.563 14.945 7.36499 15.4546 8.3733 15.4546H14.1269C15.1352 15.4546 15.9372 14.945 16.6573 14.2326C18.1313 12.7742 15.7111 11.6088 14.788 11.038C12.6234 9.6995 9.87681 9.6995 7.71216 11.038Z" stroke="#F4F4F4" stroke-width="1.1" stroke-linecap="round" stroke-linejoin="round"/>
<path d="M14.4118 4.16193C14.4118 5.90822 12.9961 7.32386 11.2498 7.32386C9.50353 7.32386 8.08789 5.90822 8.08789 4.16193C8.08789 2.41564 9.50353 1 11.2498 1C12.9961 1 14.4118 2.41564 14.4118 4.16193Z" stroke="#F4F4F4" stroke-width="1.1"/>
</svg>
