<svg width="24" height="24" viewBox="0 0 24 24" fill="none" xmlns="http://www.w3.org/2000/svg">
<g opacity="0.6">
<path d="M11.9998 6.23999V19.68" stroke="#FFA91A" stroke-linecap="round"/>
<path d="M6.22124 3.63401C9.42878 4.24472 11.3405 5.52221 11.9999 6.25562C12.6593 5.52221 14.571 4.24472 17.7785 3.63401C19.4035 3.32461 20.216 3.16992 20.9079 3.76284C21.5999 4.35577 21.5999 5.3186 21.5999 7.24426V14.1648C21.5999 15.9255 21.5999 16.8058 21.1558 17.3555C20.7117 17.9051 19.734 18.0913 17.7785 18.4637C16.0355 18.7955 14.675 19.3243 13.6903 19.8558C12.7214 20.3786 12.237 20.64 11.9999 20.64C11.7628 20.64 11.2784 20.3786 10.3095 19.8558C9.3248 19.3243 7.96438 18.7955 6.22124 18.4637C4.26581 18.0913 3.28809 17.9051 2.844 17.3555C2.3999 16.8058 2.3999 15.9255 2.3999 14.1648V7.24426C2.3999 5.3186 2.3999 4.35577 3.09185 3.76284C3.78381 3.16992 4.59629 3.32461 6.22124 3.63401Z" stroke="#FFA91A" stroke-linecap="round" stroke-linejoin="round"/>
</g>
</svg>
