<svg width="20" height="20" viewBox="0 0 20 20" fill="none" xmlns="http://www.w3.org/2000/svg">
<g opacity="0.6">
<path d="M13.8703 5.3632V3.11752C13.8703 2.61596 13.4707 2.13495 12.7596 1.7803C12.0484 1.42565 11.0839 1.22641 10.0782 1.22641C9.07248 1.22641 8.10795 1.42565 7.3968 1.7803C6.68565 2.13495 6.28613 2.61596 6.28613 3.11752V5.3632" stroke="#F4F4F4" stroke-linecap="round" stroke-linejoin="round"/>
<path d="M16.5302 5.3632H3.74062C2.22702 5.3632 1 6.34373 1 7.55327V15.5835C1 16.7931 2.22702 17.7736 3.74062 17.7736H16.5302C18.0438 17.7736 19.2708 16.7931 19.2708 15.5835V7.55327C19.2708 6.34373 18.0438 5.3632 16.5302 5.3632Z" stroke="#F4F4F4" stroke-linecap="round" stroke-linejoin="round"/>
</g>
</svg>
