<svg width="18" height="16" viewBox="0 0 18 16" fill="none" xmlns="http://www.w3.org/2000/svg">
<path d="M9 3.19998V14.4" stroke="#F4F4F4" stroke-linecap="round"/>
<path d="M4.18445 1.02834C6.8574 1.53727 8.45048 2.60184 9 3.21301C9.54952 2.60184 11.1426 1.53727 13.8155 1.02834C15.1697 0.770509 15.8467 0.641598 16.4234 1.1357C17 1.62981 17 2.43217 17 4.03689V9.80399C17 11.2713 17 12.0049 16.6299 12.4629C16.2598 12.9209 15.4451 13.0761 13.8155 13.3864C12.363 13.663 11.2293 14.1036 10.4086 14.5465C9.60128 14.9822 9.1976 15.2 9 15.2C8.8024 15.2 8.39872 14.9822 7.59136 14.5465C6.77075 14.1036 5.63706 13.663 4.18445 13.3864C2.55492 13.0761 1.74016 12.9209 1.37008 12.4629C1 12.0049 1 11.2713 1 9.80399V4.03689C1 2.43217 1 1.62981 1.57662 1.1357C2.15326 0.641598 2.83032 0.770509 4.18445 1.02834Z" stroke="#F4F4F4" stroke-linecap="round" stroke-linejoin="round"/>
</svg>
