<svg width="22" height="16" viewBox="0 0 22 16" fill="none" xmlns="http://www.w3.org/2000/svg">
<path d="M18.864 13.6477C19.5409 13.6477 20.0793 13.2218 20.5628 12.6261C21.5524 11.4067 19.9275 10.4323 19.3079 9.95513C18.6779 9.47 17.9745 9.19519 17.2613 9.13068M16.3579 7.32387C17.6052 7.32387 18.6164 6.31269 18.6164 5.06535C18.6164 3.818 17.6052 2.80682 16.3579 2.80682" stroke="#F6921C" stroke-width="1.1" stroke-linecap="round"/>
<path d="M3.01095 13.6477C2.33403 13.6477 1.7956 13.2218 1.31217 12.6261C0.322522 11.4067 1.94738 10.4323 2.5671 9.95513C3.19706 9.47 3.90046 9.19519 4.61363 9.13068M5.06534 7.32387C3.81799 7.32387 2.80682 6.31269 2.80682 5.06535C2.80682 3.818 3.81799 2.80682 5.06534 2.80682" stroke="#F6921C" stroke-width="1.1" stroke-linecap="round"/>
<path d="M7.39966 11.038C6.47658 11.6088 4.05631 12.7742 5.53041 14.2326C6.2505 14.945 7.05249 15.4546 8.0608 15.4546H13.8144C14.8227 15.4546 15.6247 14.945 16.3448 14.2326C17.8188 12.7742 15.3986 11.6088 14.4755 11.038C12.3109 9.6995 9.56431 9.6995 7.39966 11.038Z" stroke="#F6921C" stroke-width="1.1" stroke-linecap="round" stroke-linejoin="round"/>
<path d="M14.0993 4.16193C14.0993 5.90822 12.6836 7.32386 10.9373 7.32386C9.19103 7.32386 7.77539 5.90822 7.77539 4.16193C7.77539 2.41564 9.19103 1 10.9373 1C12.6836 1 14.0993 2.41564 14.0993 4.16193Z" stroke="#F6921C" stroke-width="1.1"/>
</svg>
