<svg width="24" height="24" viewBox="0 0 24 24" fill="none" xmlns="http://www.w3.org/2000/svg">
<g opacity="0.6">
<path d="M16.6439 6.43583V3.74101C16.6439 3.13914 16.1645 2.56193 15.3111 2.13635C14.4577 1.71077 13.3003 1.47168 12.0934 1.47168C10.8866 1.47168 9.72915 1.71077 8.87577 2.13635C8.02239 2.56193 7.54297 3.13914 7.54297 3.74101V6.43583" stroke="#F79219" stroke-linecap="round" stroke-linejoin="round"/>
<path d="M19.8362 6.43585H4.4887C2.67237 6.43585 1.19995 7.61248 1.19995 9.06393V18.7002C1.19995 20.1517 2.67237 21.3283 4.4887 21.3283H19.8362C21.6525 21.3283 23.1249 20.1517 23.1249 18.7002V9.06393C23.1249 7.61248 21.6525 6.43585 19.8362 6.43585Z" stroke="#F79219" stroke-linecap="round" stroke-linejoin="round"/>
</g>
</svg>
