<svg width="21" height="20" viewBox="0 0 21 20" fill="none" xmlns="http://www.w3.org/2000/svg">
<path d="M12.159 3.50836C12.7551 2.86246 13.0532 2.53952 13.3699 2.35114C14.1342 1.89661 15.0753 1.88247 15.8523 2.31386C16.1743 2.49264 16.4815 2.8065 17.096 3.43421C17.7105 4.06192 18.0178 4.37577 18.1927 4.70474C18.615 5.49849 18.6012 6.45983 18.1562 7.24056C17.9718 7.56413 17.6557 7.86862 17.0234 8.4776L9.50048 15.7234C8.3023 16.8775 7.7032 17.4546 6.95445 17.747C6.2057 18.0394 5.38256 18.0179 3.73629 17.9749L3.5123 17.969C3.01113 17.9559 2.76054 17.9494 2.61487 17.784C2.4692 17.6187 2.48909 17.3634 2.52886 16.853L2.55047 16.5758C2.66241 15.1388 2.71838 14.4204 2.99897 13.7746C3.27955 13.1287 3.76355 12.6044 4.73154 11.5556L12.159 3.50836Z" stroke="white" stroke-width="1.2" stroke-linejoin="round"/>
<path d="M11.3 3.6001L16.9 9.2001" stroke="white" stroke-width="1.2" stroke-linejoin="round"/>
</svg>
