<svg width="59" height="50" viewBox="0 0 64 55" fill="none" xmlns="http://www.w3.org/2000/svg">
<path d="M50.8416 49.6776H52.1472C55.2095 49.6776 57.6453 48.2723 59.8325 46.3077C65.3886 41.3167 52.3277 36.2677 47.869 36.2677" stroke="#F4F4F4" stroke-width="4" stroke-linecap="round" stroke-linejoin="round"/>
<path d="M40.4707 8.16464C41.1428 8.03043 41.8406 7.95972 42.5564 7.95972C47.942 7.95972 52.3079 11.9621 52.3079 16.8993C52.3079 21.8364 47.942 25.8388 42.5564 25.8388C41.8406 25.8388 41.1428 25.7682 40.4707 25.6338" stroke="#F4F4F4" stroke-width="4" stroke-linecap="round"/>
<path d="M10.2343 38.0896C6.97798 39.9723 -1.55994 43.8165 3.64022 48.6269C6.18048 50.9768 9.00965 52.6575 12.5666 52.6575H32.8633C36.4203 52.6575 39.2494 50.9768 41.7897 48.6269C46.9898 43.8165 38.4519 39.9723 35.1955 38.0896C27.5596 33.6746 17.8704 33.6746 10.2343 38.0896Z" stroke="#F4F4F4" stroke-width="4" stroke-linecap="round" stroke-linejoin="round"/>
<path d="M34.5523 13.9194C34.5523 20.5023 29.2525 25.8388 22.7151 25.8388C16.1776 25.8388 10.8779 20.5023 10.8779 13.9194C10.8779 7.33648 16.1776 2 22.7151 2C29.2525 2 34.5523 7.33648 34.5523 13.9194Z" stroke="#F4F4F4" stroke-width="4"/>
</svg>
