<svg width="22" height="20" viewBox="0 0 22 20" fill="none" xmlns="http://www.w3.org/2000/svg">
<path d="M19.1765 14.6477C19.8534 14.6477 20.3918 14.2218 20.8753 13.6261C21.8649 12.4067 20.24 11.4323 19.6204 10.9551C18.9904 10.47 18.287 10.1952 17.5738 10.1307M16.6704 8.32387C17.9177 8.32387 18.9289 7.31269 18.9289 6.06535C18.9289 4.818 17.9177 3.80682 16.6704 3.80682" stroke="#F4F4F4" stroke-width="1.1" stroke-linecap="round"/>
<path d="M3.32345 14.6477C2.64653 14.6477 2.1081 14.2218 1.62467 13.6261C0.635022 12.4067 2.25988 11.4323 2.8796 10.9551C3.50956 10.47 4.21296 10.1952 4.92613 10.1307M5.37784 8.32387C4.13049 8.32387 3.11932 7.31269 3.11932 6.06535C3.11932 4.818 4.13049 3.80682 5.37784 3.80682" stroke="#F4F4F4" stroke-width="1.1" stroke-linecap="round"/>
<path d="M7.71191 12.038C6.78884 12.6088 4.36857 13.7742 5.84267 15.2326C6.56276 15.945 7.36475 16.4546 8.37305 16.4546H14.1267C15.1349 16.4546 15.9369 15.945 16.657 15.2326C18.1311 13.7742 15.7109 12.6088 14.7878 12.038C12.6231 10.6995 9.87657 10.6995 7.71191 12.038Z" stroke="#F4F4F4" stroke-width="1.1" stroke-linecap="round" stroke-linejoin="round"/>
<path d="M14.4118 5.16193C14.4118 6.90822 12.9961 8.32386 11.2498 8.32386C9.50353 8.32386 8.08789 6.90822 8.08789 5.16193C8.08789 3.41564 9.50353 2 11.2498 2C12.9961 2 14.4118 3.41564 14.4118 5.16193Z" stroke="#F4F4F4" stroke-width="1.1"/>
</svg>
